HIERARCHY
ROOT Hips
{
	OFFSET 0.000000 0.000000 0.000000 
	CHANNELS 6 Xposition Yposition Zposition Zrotation Yrotation Xrotation
	JOINT LeftUpLeg
	{
		OFFSET 1.363060 -1.794630 0.839290 
		CHANNELS 3 Zrotation Yrotation Xrotation
		JOINT LeftLeg
		{
			OFFSET 2.448110 -6.726130 0.000000 
			CHANNELS 3 Zrotation Yrotation Xrotation
			JOINT LeftFoot
			{
				OFFSET 2.562200 -7.039590 0.000000 
				CHANNELS 3 Zrotation Yrotation Xrotation
				JOINT LeftToeBase
				{
					OFFSET 0.157640 -0.433110 2.322550 
					CHANNELS 3 Zrotation Yrotation Xrotation
					End Site
					{
						OFFSET 0.000000 0.000000 0.000000 
					}
				}
			}
		}
	}
	JOINT RightUpLeg
	{
		OFFSET -1.305520 -1.794630 0.839290 
		CHANNELS 3 Zrotation Yrotation Xrotation
		JOINT RightLeg
		{
			OFFSET -2.542530 -6.985550 0.000000 
			CHANNELS 3 Zrotation Yrotation Xrotation
			JOINT RightFoot
			{
				OFFSET -2.568260 -7.056230 0.000000 
				CHANNELS 3 Zrotation Yrotation Xrotation
				JOINT RightToeBase
				{
					OFFSET -0.164730 -0.452590 2.363150 
					CHANNELS 3 Zrotation Yrotation Xrotation
					End Site
					{
						OFFSET 0.000000 0.000000 0.000000 
					}
				}
			}
		}
	}
	JOINT Spine
	{
		OFFSET 0.028270 2.035590 -0.193380 
		CHANNELS 3 Zrotation Yrotation Xrotation
		JOINT Spine1
		{
			OFFSET 0.056720 2.048850 -0.042750 
			CHANNELS 3 Zrotation Yrotation Xrotation
			JOINT Neck1
			{
				OFFSET -0.054170 1.746240 0.172020 
				CHANNELS 3 Zrotation Yrotation Xrotation
				JOINT Head
				{
					OFFSET 0.104070 1.761360 -0.123970 
					CHANNELS 3 Zrotation Yrotation Xrotation
					End Site
					{
						OFFSET 0.000000 0.000000 0.000000 
					}
				}
			}
			JOINT LeftArm
			{
				OFFSET 3.362410 1.200890 -0.311210 
				CHANNELS 3 Zrotation Yrotation Xrotation
				JOINT LeftForeArm
				{
					OFFSET 4.983000 -0.000000 -0.000000 
					CHANNELS 3 Zrotation Yrotation Xrotation
					JOINT LeftHand
					{
						OFFSET 3.483560 -0.000000 -0.000000 
						CHANNELS 3 Zrotation Yrotation Xrotation
						JOINT LeftHandIndex1
						{
							OFFSET 0.715260 -0.000000 -0.000000 
							CHANNELS 3 Zrotation Yrotation Xrotation
							End Site
							{
								OFFSET 0.000000 0.000000 0.000000 
							}
						}
					}
				}
			}
			JOINT RightArm
			{
				OFFSET -3.136600 1.374050 -0.404650 
				CHANNELS 3 Zrotation Yrotation Xrotation
				JOINT RightForeArm
				{
					OFFSET -5.241900 -0.000000 -0.000000 
					CHANNELS 3 Zrotation Yrotation Xrotation
					JOINT RightHand
					{
						OFFSET -3.444170 -0.000000 -0.000000 
						CHANNELS 3 Zrotation Yrotation Xrotation
						JOINT RightHandIndex1
						{
							OFFSET -0.622530 -0.000000 -0.000000 
							CHANNELS 3 Zrotation Yrotation Xrotation
							End Site
							{
								OFFSET 0.000000 0.000000 0.000000 
							}
						}
					}
				}
			}
		}
	}
}
MOTION
Frames: 15
Frame Time: 0.041667
11.312666 17.038524 1.572247 -5.196992 -45.203020 11.184183 -0.318276 -25.681791 -27.079544 3.981013 13.921328 39.450074 1.862685 -11.617786 -5.936808 1.166500 -6.856000 -19.289500 20.696386 1.458500 15.489745 -0.857563 -4.204725 13.204120 -0.742356 -30.897852 -50.844465 -1.270900 -7.145200 20.146300 -1.407386 18.263803 -3.869160 -2.852054 9.485146 6.316610 1.874576 -6.119839 11.791215 1.075400 -3.125900 5.323900 -51.159862 32.082084 -21.078265 21.894737 -25.320246 -5.593352 -1.136073 -0.235363 -44.626321 -7.125000 0.000000 0.000000 32.845675 17.244411 -9.682513 -25.994620 29.482410 -7.082782 -1.459909 -0.889947 10.153406 7.125000 0.000000 0.000000 
11.330773 17.090164 1.551456 -5.189708 -48.332819 11.660574 -0.571411 -24.014740 -26.352781 3.746178 13.601193 38.494808 1.733273 -9.799078 -6.176573 1.317400 -7.269700 -20.517000 20.111228 2.653533 13.678697 -0.953447 -4.468092 13.911898 -1.309344 -30.148364 -51.815656 -1.534400 -7.820300 22.169500 -1.331872 17.203074 -3.786128 -2.319476 8.932317 6.470408 3.046812 -7.956627 11.048056 1.844100 -4.000600 5.004700 -48.837403 31.296154 -20.259660 22.119734 -25.714462 -5.629798 -1.132161 -0.164866 -44.942216 -7.125000 0.000000 0.000000 32.031210 14.902838 -10.595621 -25.918259 29.492037 -7.122229 -1.443823 -0.844962 9.235999 7.125000 0.000000 0.000000 
11.344075 17.139234 1.525301 -5.280381 -51.461489 12.172749 -0.793310 -22.201011 -25.631783 3.522101 13.285792 37.560902 1.578850 -8.097047 -6.370016 1.415900 -7.525500 -21.282000 19.538638 3.688500 11.812436 -1.041601 -4.720911 14.565378 -1.634354 -29.829737 -52.482309 -1.626700 -8.040900 22.838500 -1.236469 16.109753 -3.705980 -1.729134 8.349379 6.676183 3.934561 -9.832054 10.567379 2.413800 -4.909900 4.941400 -46.561744 30.386234 -19.554028 22.374877 -26.128820 -5.647609 -1.150149 -0.062844 -45.239552 -7.125000 0.000000 0.000000 31.229024 13.979595 -13.930704 -24.429624 27.825942 -6.358872 -1.513697 -0.750235 12.049355 7.125000 0.000000 0.000000 
11.353464 17.185845 1.498586 -5.256129 -54.586470 12.586965 -1.112055 -20.398161 -24.898868 3.302625 12.974417 36.635414 1.392901 -6.414873 -6.539270 1.414000 -7.520800 -21.267700 18.870781 4.678740 9.952711 -1.128396 -4.968784 15.199801 -2.060616 -29.254583 -53.224638 -1.745200 -8.313800 23.671400 -1.104695 14.954124 -3.632337 -0.861816 7.719667 6.815635 4.734533 -11.548496 10.142457 2.967400 -5.759000 4.896700 -44.472348 29.594430 -18.966234 22.659128 -26.626226 -5.774542 -1.116986 -0.050200 -45.783017 -7.125000 0.000000 0.000000 30.599881 11.966233 -15.383470 -23.731597 27.012508 -6.039792 -1.541868 -0.696061 12.480486 7.125000 0.000000 0.000000 
11.362742 17.228879 1.474778 -5.047878 -57.615266 12.886281 -1.526746 -18.630529 -24.305756 3.093272 12.679648 35.745117 1.191216 -4.875145 -6.596107 1.387500 -7.452900 -21.064300 18.020283 5.323636 7.949125 -1.199635 -5.182502 15.712027 -2.189027 -28.994122 -53.379019 -1.825200 -8.492200 24.219300 -0.977388 13.705801 -3.570108 -0.048222 7.042514 6.982594 5.515396 -13.103631 9.737171 3.500600 -6.531300 4.856700 -42.483256 28.945274 -18.070897 23.112818 -27.243106 -5.864131 -1.143535 0.001903 -46.556247 -7.125000 0.000000 0.000000 30.073709 9.805445 -16.211518 -23.201266 26.339693 -5.756667 -1.556181 -0.702509 11.871851 7.125000 0.000000 0.000000 
11.373584 17.266659 1.446051 -4.963355 -60.513038 13.274019 -1.848011 -16.796053 -23.859337 2.901902 12.399537 34.900426 0.996572 -3.522490 -6.630028 1.402300 -7.490800 -21.177800 17.295326 5.818937 5.983695 -1.252083 -5.354002 16.084813 -2.107592 -28.994702 -53.145821 -1.805400 -8.448300 24.084200 -0.878544 12.416493 -3.527170 0.399733 6.369425 7.139004 6.311205 -14.533759 9.368883 4.016500 -7.238300 4.889400 -40.352813 27.892828 -17.948880 23.343923 -27.676862 -5.948205 -1.124745 0.069839 -47.093822 -7.125000 0.000000 0.000000 29.962692 7.698342 -17.167237 -22.789269 25.819287 -5.562586 -1.568535 -0.721023 11.052254 7.125000 0.000000 0.000000 
11.383756 17.295497 1.412071 -5.144904 -63.436825 13.813039 -2.055172 -14.838714 -23.410039 2.732870 12.130697 34.112045 0.820339 -2.367633 -6.682224 1.371000 -7.410200 -20.936500 16.783106 6.524543 4.293976 -1.291797 -5.484624 16.349011 -2.185703 -28.552093 -53.007047 -1.834100 -8.511500 24.278900 -0.781610 11.189740 -3.523628 0.677688 5.744398 7.064304 6.981618 -15.687689 9.070804 4.451000 -7.822700 4.859700 -38.172077 26.497041 -18.100209 23.309337 -27.808191 -5.963695 -1.101800 0.133637 -46.095824 -7.125000 0.000000 0.000000 30.171908 5.395765 -18.278396 -22.387685 25.308968 -5.434652 -1.606886 -0.683156 11.060433 7.125000 0.000000 0.000000 
11.389009 17.319082 1.375856 -5.368850 -66.474582 14.327992 -2.310062 -12.813399 -22.878443 2.579763 11.873810 33.372811 0.636487 -1.231387 -6.776293 1.348800 -7.352300 -20.763300 16.258052 7.259592 2.741682 -1.316599 -5.590593 16.517496 -1.763479 -28.833648 -51.978795 -1.731000 -8.281800 23.573200 -0.658882 9.969306 -3.528107 1.124463 5.110377 7.107766 7.331443 -16.612584 9.130359 4.653400 -8.297200 5.112900 -36.392595 25.131259 -17.648992 23.973364 -28.654065 -6.210709 -1.079655 0.213366 -48.425436 -7.125000 0.000000 0.000000 30.404510 2.891299 -18.319915 -22.498091 25.273243 -5.399640 -1.592533 -0.794522 9.783969 7.125000 0.000000 0.000000 
11.390239 17.340096 1.337628 -5.111073 -69.574342 14.383019 -2.785030 -10.813974 -22.313210 2.431498 11.629436 32.659609 0.441704 -0.086393 -6.953906 1.353500 -7.364600 -20.800100 15.473039 8.078705 1.392348 -1.332247 -5.680444 16.633176 -0.962897 -29.415425 -49.983365 -1.515400 -7.774000 22.029700 -0.527554 8.727720 -3.516197 1.722590 4.454505 7.244344 7.572068 -17.270681 8.991869 4.842000 -8.640200 5.163400 -35.013689 23.239604 -19.083208 23.471488 -28.179021 -5.988626 -1.128459 0.187186 -46.072429 -7.125000 0.000000 0.000000 30.585433 0.656727 -19.077007 -22.491943 25.156294 -5.372741 -1.602874 -0.821481 9.358295 7.125000 0.000000 0.000000 
11.392027 17.355186 1.293141 -4.433839 -72.726283 14.020369 -3.371419 -8.690275 -21.825927 2.292040 11.395436 31.974231 0.266402 0.901231 -7.138690 1.358300 -7.377200 -20.837700 14.537765 9.272503 0.315504 -1.346846 -5.758548 16.736978 -0.322470 -29.393367 -47.780407 -1.311700 -7.254600 20.471800 -0.433114 7.619379 -3.533622 2.133880 3.876507 7.197872 7.735005 -17.856053 8.723686 4.923600 -8.933300 5.069700 -33.727724 21.132138 -19.199288 23.981661 -28.831761 -6.189448 -1.100631 0.248805 -47.688788 -7.125000 0.000000 0.000000 31.119636 -2.131461 -19.257795 -22.818825 25.439880 -5.549326 -1.616938 -0.835522 7.880674 7.125000 0.000000 0.000000 
11.393145 17.363905 1.243065 -3.654433 -75.897315 13.469999 -3.941667 -6.528957 -21.320799 2.165680 11.170523 31.322181 0.064247 1.988744 -7.324359 1.426400 -7.552300 -21.362300 13.598914 10.349436 -0.748513 -1.354121 -5.838238 16.829926 0.415526 -29.283363 -44.928317 -1.034600 -6.469600 18.153200 -0.353108 6.590403 -3.562235 2.377113 3.353678 7.164884 7.807821 -18.299129 8.596490 4.921700 -9.155000 5.025900 -32.291007 18.577464 -19.617523 23.892548 -28.700630 -6.053455 -1.160509 0.259250 -47.700832 -7.125000 0.000000 0.000000 31.909507 -5.178556 -19.208916 -23.388636 25.944962 -5.775154 -1.597171 -0.933457 5.855642 7.125000 0.000000 0.000000 
11.389680 17.368823 1.197908 -3.341268 -78.986136 13.301658 -4.369615 -4.585823 -20.696874 2.052044 10.950878 30.695117 -0.188900 3.319497 -7.662558 1.571400 -7.909700 -22.440100 12.772479 10.832860 -1.994505 -1.353886 -5.921975 16.916093 1.034163 -28.636063 -41.561594 -0.799300 -5.706200 15.934200 -0.187375 5.270455 -3.604024 2.916851 2.682092 7.157374 7.863264 -18.303619 8.616183 5.060200 -9.183300 5.070000 -31.858035 15.989490 -21.121630 23.655085 -28.464288 -5.976560 -1.147236 0.274777 -47.119031 -7.125000 0.000000 0.000000 32.308539 -7.227559 -20.176078 -23.661937 26.139580 -5.870361 -1.599815 -0.964980 5.454600 7.125000 0.000000 0.000000 
11.380514 17.373741 1.155321 -4.135985 -82.163851 14.200002 -4.671521 -2.666836 -19.953045 1.945758 10.718313 30.055304 -0.458386 4.704490 -8.147519 1.688600 -8.184900 -23.277100 12.136499 11.113227 -3.431102 -1.351713 -6.031855 17.032675 1.702042 -28.219777 -37.805608 -0.508500 -4.571000 12.688900 0.020064 3.827162 -3.654228 3.535113 1.944280 7.168625 7.928108 -18.027219 8.681446 5.236800 -9.073900 5.118400 -31.818343 14.041240 -21.273062 23.837561 -28.688403 -6.082717 -1.100451 0.298453 -47.947660 -7.125000 0.000000 0.000000 32.591960 -8.915994 -21.029056 -23.991852 26.413475 -5.978530 -1.605155 -0.972449 5.349132 7.125000 0.000000 0.000000 
11.369336 17.379106 1.108375 -6.108444 -85.421581 16.249946 -5.008052 -0.885581 -19.049713 1.835528 10.460954 29.361143 -0.780442 6.277265 -8.590465 1.692300 -8.193300 -23.302700 11.606143 11.624703 -4.927599 -1.353682 -6.188119 17.233203 2.504472 -28.491169 -33.726283 -0.186600 -2.781900 7.672000 0.170237 2.650477 -3.694270 3.849434 1.347562 7.200552 7.909787 -17.906454 8.721309 5.238800 -9.020400 5.108100 -31.741465 11.548404 -21.490929 23.698575 -28.480424 -5.999850 -1.125062 0.193540 -46.778218 -7.125000 0.000000 0.000000 33.373538 -11.306943 -21.310544 -24.526769 26.886682 -6.175298 -1.588680 -1.037103 4.418695 7.125000 0.000000 0.000000 
11.358159 17.383354 1.061093 -22.667396 -88.225970 32.926172 -5.265811 0.428545 -17.954878 1.738541 10.122586 28.608144 -1.190437 8.145625 -8.931931 1.629500 -8.047500 -22.858500 11.215453 12.503368 -6.468045 -1.354567 -6.431686 17.522269 2.891355 -28.246222 -30.534890 -0.062300 -1.610700 4.431000 0.326325 1.428003 -3.761836 4.078581 0.709319 7.081464 7.812740 -17.784196 8.716369 5.162300 -8.963400 4.997800 -31.788509 8.555216 -21.760648 23.584647 -28.308789 -5.947839 -1.115375 0.150660 -46.006939 -7.125000 0.000000 0.000000 34.310090 -13.912830 -21.358508 -24.888380 27.129694 -6.308239 -1.567364 -1.138107 3.452347 7.125000 0.000000 0.000000 
